<svg width="714" height="536" viewBox="0 0 714 536" fill="none" xmlns="http://www.w3.org/2000/svg">
<path d="M48.729 731.025C-12.3337 783.805 -2.8528 825.394 9.52049 839.591L149.251 1028.61L1258.44 208.655L1118.71 19.6358C1108.76 3.64314 1071.78 -17.6172 1003.42 25.2824C917.957 78.9068 904.166 55.6775 878.843 47.3397C853.52 39.002 820.91 36.0516 761.948 101.125C702.986 166.199 638.634 220.933 562.545 226.249C501.674 230.502 459.398 257.139 444.665 268.03C429.931 278.922 392.068 311.528 370.15 368.475C342.754 439.66 271.555 485.131 192.051 522.416C112.547 559.702 105.804 591.744 106.349 618.399C106.894 645.054 125.057 665.05 48.729 731.025Z" fill="#023E8A"/>
</svg>
