<svg width="780" height="492" viewBox="0 0 780 492" fill="none" xmlns="http://www.w3.org/2000/svg">
<path d="M-223.907 466.381C-292.274 509.28 -329.253 488.02 -339.197 472.027L-478.928 283.008L630.257 -536.947L769.988 -347.928C782.361 -333.731 791.842 -292.142 730.779 -239.362C654.451 -173.387 672.615 -153.391 673.159 -126.736C673.704 -100.081 666.961 -68.0392 587.457 -30.7535C507.953 6.53228 436.754 52.0033 409.358 123.188C387.441 180.135 349.577 212.741 334.844 223.633C320.111 234.524 277.834 261.161 216.963 265.414C140.874 270.73 76.5225 325.464 17.5605 390.537C-41.4014 455.611 -74.0121 452.661 -99.3351 444.323C-124.658 435.986 -138.449 412.756 -223.907 466.381Z" fill="#023E8A"/>
</svg>
